<svg enable-background="new 0 0 32 32" id="Outline" version="1.1" viewBox="0 0 32 32" xml:space="preserve" xmlns="http://www.w3.org/2000/svg" xmlns:xlink="http://www.w3.org/1999/xlink"><title></title><desc></desc><g><rect height="2" width="2" x="21" y="30"></rect><path d="M32,2V0c-7.513,0-14.362,3.74-18.443,10.021c-4.448,0.218-8.06,3.67-8.509,8.055C2.19,18.534,0,21.016,0,24   c0,3.309,2.691,6,6,6h5.026c0.914,1.207,2.348,2,3.974,2h4v-2h-4c-1.654,0-3-1.346-3-3s1.346-3,3-3c0.552,0,1-0.448,1-1   c0-2.757,2.243-5,5-5c2.139,0,4.037,1.355,4.723,3.372c0.123,0.36,0.439,0.62,0.816,0.669C28.512,22.3,30,24.002,30,26   c0,2.206-1.794,4-4,4h-1v2h1c3.309,0,6-2.691,6-6c0-2.462-1.51-4.621-3.691-5.531C28.919,19.004,30.365,18,32,18v-2   c-2.208,0-4.18,1.226-5.221,3.074c-0.396-0.584-0.875-1.097-1.419-1.531C26.836,15.337,29.293,14,32,14v-2   c-3.424,0-6.525,1.716-8.361,4.533c-0.352-0.144-0.716-0.256-1.091-0.341c-0.114-0.348-0.248-0.684-0.401-1.01   C24.395,11.937,28.037,10,32,10V8c-4.336,0-8.342,1.987-10.988,5.354c-0.426-0.529-0.907-1.008-1.437-1.426   C22.602,8.198,27.158,6,32,6V4c-5.536,0-10.742,2.548-14.145,6.869c-0.631-0.299-1.3-0.523-1.997-0.67C19.62,5.04,25.541,2,32,2z    M14.059,22.089C11.75,22.53,10,24.564,10,27c0,0.342,0.035,0.677,0.101,1H6c-2.206,0-4-1.794-4-4s1.794-4,4-4c0.552,0,1-0.448,1-1   c0-3.86,3.14-7,7-7c2.762,0,5.2,1.609,6.331,4.032C17.086,16.341,14.479,18.876,14.059,22.089z"></path></g></svg>